<mxfile host="Electron" agent="Mozilla/5.0 (Windows NT 10.0; Win64; x64) AppleWebKit/537.36 (KHTML, like Gecko) draw.io/28.1.2 Chrome/138.0.7204.243 Electron/37.4.0 Safari/537.36" version="28.1.2">
  <diagram name="Страница — 1" id="S_1nVSsigX1wQKj-s-Wd">
    <mxGraphModel dx="1295" dy="2037" grid="1" gridSize="10" guides="1" tooltips="1" connect="1" arrows="1" fold="1" page="1" pageScale="1" pageWidth="827" pageHeight="1169" math="0" shadow="0">
      <root>
        <mxCell id="0" />
        <mxCell id="1" parent="0" />
        <mxCell id="pppW7GSR7pbcedPbxuVP-1" value="Site&lt;br&gt;UI" style="rounded=1;whiteSpace=wrap;html=1;" vertex="1" parent="1">
          <mxGeometry x="150" y="280" width="120" height="60" as="geometry" />
        </mxCell>
        <mxCell id="pppW7GSR7pbcedPbxuVP-2" value="&lt;font style=&quot;font-size: 27px;&quot;&gt;&lt;b&gt;Яндекс лавка&lt;/b&gt;&lt;/font&gt;" style="text;html=1;align=center;verticalAlign=middle;resizable=0;points=[];autosize=1;strokeColor=none;fillColor=none;" vertex="1" parent="1">
          <mxGeometry x="260" y="118" width="200" height="50" as="geometry" />
        </mxCell>
        <mxCell id="pppW7GSR7pbcedPbxuVP-3" value="&lt;font style=&quot;font-size: 19px;&quot;&gt;API GW&lt;/font&gt;" style="rounded=1;whiteSpace=wrap;html=1;" vertex="1" parent="1">
          <mxGeometry x="845" y="-150" width="190" height="100" as="geometry" />
        </mxCell>
        <mxCell id="pppW7GSR7pbcedPbxuVP-5" value="Broker&lt;br&gt;(Kafka)" style="rounded=1;whiteSpace=wrap;html=1;" vertex="1" parent="1">
          <mxGeometry x="880" y="50" width="120" height="60" as="geometry" />
        </mxCell>
        <mxCell id="pppW7GSR7pbcedPbxuVP-15" value="DB delivers" style="shape=cylinder3;whiteSpace=wrap;html=1;boundedLbl=1;backgroundOutline=1;size=15;" vertex="1" parent="1">
          <mxGeometry x="1120" y="280" width="80" height="120" as="geometry" />
        </mxCell>
        <mxCell id="pppW7GSR7pbcedPbxuVP-16" value="DB users" style="shape=cylinder3;whiteSpace=wrap;html=1;boundedLbl=1;backgroundOutline=1;size=15;" vertex="1" parent="1">
          <mxGeometry x="670" y="280" width="80" height="120" as="geometry" />
        </mxCell>
        <mxCell id="pppW7GSR7pbcedPbxuVP-17" value="DB&amp;nbsp; orders" style="shape=cylinder3;whiteSpace=wrap;html=1;boundedLbl=1;backgroundOutline=1;size=15;" vertex="1" parent="1">
          <mxGeometry x="970" y="280" width="80" height="120" as="geometry" />
        </mxCell>
        <mxCell id="pppW7GSR7pbcedPbxuVP-19" value="Auth service" style="rounded=1;whiteSpace=wrap;html=1;" vertex="1" parent="1">
          <mxGeometry x="650" y="190" width="120" height="60" as="geometry" />
        </mxCell>
        <mxCell id="pppW7GSR7pbcedPbxuVP-20" value="Order management service" style="rounded=1;whiteSpace=wrap;html=1;" vertex="1" parent="1">
          <mxGeometry x="950" y="190" width="120" height="60" as="geometry" />
        </mxCell>
        <mxCell id="pppW7GSR7pbcedPbxuVP-21" value="Deliveryman service" style="rounded=1;whiteSpace=wrap;html=1;" vertex="1" parent="1">
          <mxGeometry x="1100" y="190" width="120" height="60" as="geometry" />
        </mxCell>
        <mxCell id="pppW7GSR7pbcedPbxuVP-22" value="Order picker service" style="rounded=1;whiteSpace=wrap;html=1;" vertex="1" parent="1">
          <mxGeometry x="800" y="190" width="120" height="60" as="geometry" />
        </mxCell>
        <mxCell id="pppW7GSR7pbcedPbxuVP-30" value="Pool" style="swimlane;childLayout=stackLayout;resizeParent=1;resizeParentMax=0;horizontal=1;startSize=20;horizontalStack=0;html=1;" vertex="1" parent="1">
          <mxGeometry x="100" y="900" width="1220" height="620" as="geometry" />
        </mxCell>
        <mxCell id="pppW7GSR7pbcedPbxuVP-31" value="User" style="swimlane;startSize=20;horizontal=0;html=1;" vertex="1" parent="pppW7GSR7pbcedPbxuVP-30">
          <mxGeometry y="20" width="1220" height="120" as="geometry" />
        </mxCell>
        <mxCell id="pppW7GSR7pbcedPbxuVP-43" style="edgeStyle=orthogonalEdgeStyle;rounded=0;orthogonalLoop=1;jettySize=auto;html=1;entryX=0;entryY=0.5;entryDx=0;entryDy=0;" edge="1" parent="pppW7GSR7pbcedPbxuVP-31" source="pppW7GSR7pbcedPbxuVP-40" target="pppW7GSR7pbcedPbxuVP-41">
          <mxGeometry relative="1" as="geometry" />
        </mxCell>
        <mxCell id="pppW7GSR7pbcedPbxuVP-40" value="" style="ellipse;whiteSpace=wrap;html=1;aspect=fixed;" vertex="1" parent="pppW7GSR7pbcedPbxuVP-31">
          <mxGeometry x="55" y="45" width="30" height="30" as="geometry" />
        </mxCell>
        <mxCell id="pppW7GSR7pbcedPbxuVP-44" style="edgeStyle=orthogonalEdgeStyle;rounded=0;orthogonalLoop=1;jettySize=auto;html=1;entryX=0;entryY=0.5;entryDx=0;entryDy=0;" edge="1" parent="pppW7GSR7pbcedPbxuVP-31" source="pppW7GSR7pbcedPbxuVP-41" target="pppW7GSR7pbcedPbxuVP-42">
          <mxGeometry relative="1" as="geometry" />
        </mxCell>
        <mxCell id="pppW7GSR7pbcedPbxuVP-41" value="enter site" style="rounded=1;whiteSpace=wrap;html=1;" vertex="1" parent="pppW7GSR7pbcedPbxuVP-31">
          <mxGeometry x="120" y="42.5" width="60" height="35" as="geometry" />
        </mxCell>
        <mxCell id="pppW7GSR7pbcedPbxuVP-57" style="edgeStyle=orthogonalEdgeStyle;rounded=0;orthogonalLoop=1;jettySize=auto;html=1;entryX=0;entryY=0.5;entryDx=0;entryDy=0;" edge="1" parent="pppW7GSR7pbcedPbxuVP-31" source="pppW7GSR7pbcedPbxuVP-42" target="pppW7GSR7pbcedPbxuVP-45">
          <mxGeometry relative="1" as="geometry" />
        </mxCell>
        <mxCell id="pppW7GSR7pbcedPbxuVP-42" value="authtorization" style="rounded=1;whiteSpace=wrap;html=1;" vertex="1" parent="pppW7GSR7pbcedPbxuVP-31">
          <mxGeometry x="220" y="45" width="80" height="30" as="geometry" />
        </mxCell>
        <mxCell id="pppW7GSR7pbcedPbxuVP-45" value="make order" style="rounded=1;whiteSpace=wrap;html=1;" vertex="1" parent="pppW7GSR7pbcedPbxuVP-31">
          <mxGeometry x="350" y="47.5" width="80" height="30" as="geometry" />
        </mxCell>
        <mxCell id="pppW7GSR7pbcedPbxuVP-47" value="API GW" style="swimlane;startSize=20;horizontal=0;html=1;" vertex="1" parent="pppW7GSR7pbcedPbxuVP-30">
          <mxGeometry y="140" width="1220" height="120" as="geometry" />
        </mxCell>
        <mxCell id="pppW7GSR7pbcedPbxuVP-48" value="" style="rounded=1;whiteSpace=wrap;html=1;" vertex="1" parent="pppW7GSR7pbcedPbxuVP-47">
          <mxGeometry x="360" y="30" width="60" height="30" as="geometry" />
        </mxCell>
        <mxCell id="pppW7GSR7pbcedPbxuVP-32" value="Order&amp;nbsp;" style="swimlane;startSize=20;horizontal=0;html=1;" vertex="1" parent="pppW7GSR7pbcedPbxuVP-30">
          <mxGeometry y="260" width="1220" height="120" as="geometry" />
        </mxCell>
        <mxCell id="pppW7GSR7pbcedPbxuVP-51" value="DB&amp;nbsp; orders" style="shape=cylinder3;whiteSpace=wrap;html=1;boundedLbl=1;backgroundOutline=1;size=15;" vertex="1" parent="pppW7GSR7pbcedPbxuVP-32">
          <mxGeometry x="410" y="9" width="50" height="71" as="geometry" />
        </mxCell>
        <mxCell id="pppW7GSR7pbcedPbxuVP-54" value="add order to DB" style="rounded=1;whiteSpace=wrap;html=1;" vertex="1" parent="pppW7GSR7pbcedPbxuVP-32">
          <mxGeometry x="274" y="30" width="86" height="40" as="geometry" />
        </mxCell>
        <mxCell id="pppW7GSR7pbcedPbxuVP-56" style="edgeStyle=orthogonalEdgeStyle;rounded=0;orthogonalLoop=1;jettySize=auto;html=1;entryX=0;entryY=0;entryDx=0;entryDy=52.5;entryPerimeter=0;" edge="1" parent="pppW7GSR7pbcedPbxuVP-32" source="pppW7GSR7pbcedPbxuVP-54" target="pppW7GSR7pbcedPbxuVP-51">
          <mxGeometry relative="1" as="geometry" />
        </mxCell>
        <mxCell id="pppW7GSR7pbcedPbxuVP-62" style="edgeStyle=orthogonalEdgeStyle;rounded=0;orthogonalLoop=1;jettySize=auto;html=1;" edge="1" parent="pppW7GSR7pbcedPbxuVP-32" source="pppW7GSR7pbcedPbxuVP-60" target="pppW7GSR7pbcedPbxuVP-54">
          <mxGeometry relative="1" as="geometry" />
        </mxCell>
        <mxCell id="pppW7GSR7pbcedPbxuVP-60" value="Kafka" style="shape=cylinder3;whiteSpace=wrap;html=1;boundedLbl=1;backgroundOutline=1;size=15;" vertex="1" parent="pppW7GSR7pbcedPbxuVP-32">
          <mxGeometry x="150" y="10" width="60" height="80" as="geometry" />
        </mxCell>
        <mxCell id="pppW7GSR7pbcedPbxuVP-33" value="Order picker" style="swimlane;startSize=20;horizontal=0;html=1;" vertex="1" parent="pppW7GSR7pbcedPbxuVP-30">
          <mxGeometry y="380" width="1220" height="120" as="geometry">
            <mxRectangle y="260" width="1220" height="30" as="alternateBounds" />
          </mxGeometry>
        </mxCell>
        <mxCell id="pppW7GSR7pbcedPbxuVP-35" value="Deliveryman" style="swimlane;startSize=20;horizontal=0;html=1;" vertex="1" parent="pppW7GSR7pbcedPbxuVP-30">
          <mxGeometry y="500" width="1220" height="120" as="geometry">
            <mxRectangle y="260" width="1220" height="30" as="alternateBounds" />
          </mxGeometry>
        </mxCell>
        <mxCell id="pppW7GSR7pbcedPbxuVP-49" style="edgeStyle=orthogonalEdgeStyle;rounded=0;orthogonalLoop=1;jettySize=auto;html=1;entryX=0.5;entryY=0;entryDx=0;entryDy=0;" edge="1" parent="pppW7GSR7pbcedPbxuVP-30" source="pppW7GSR7pbcedPbxuVP-45" target="pppW7GSR7pbcedPbxuVP-48">
          <mxGeometry relative="1" as="geometry" />
        </mxCell>
        <mxCell id="pppW7GSR7pbcedPbxuVP-61" style="edgeStyle=orthogonalEdgeStyle;rounded=0;orthogonalLoop=1;jettySize=auto;html=1;entryX=0.5;entryY=0;entryDx=0;entryDy=0;entryPerimeter=0;" edge="1" parent="pppW7GSR7pbcedPbxuVP-30" source="pppW7GSR7pbcedPbxuVP-48" target="pppW7GSR7pbcedPbxuVP-60">
          <mxGeometry relative="1" as="geometry" />
        </mxCell>
      </root>
    </mxGraphModel>
  </diagram>
</mxfile>
